<svg xmlns="http://www.w3.org/2000/svg" viewBox="0 0 315 215" class="svg-logo" style="height: auto;" width="315" height="215"><g data-element="wrapper" transform="translate(47.96167449951024 36.44999999999904) scale(0.7000000000000095)"><g><g data-element="icon" transform="scale(0.14166666666666666) translate(811.7647058823529 45.77344916848574)"><path id="color_x5F_1_28_" d="M450.228,376.285c-8.526,10.885-21.504,18.41-35.718,21.863v14.514    c0,9.194-7.454,16.648-16.648,16.648c-9.194,0-16.648-7.454-16.648-16.648v-14.398c-1.956-0.463-3.943-0.792-5.849-1.437    c-27.882-9.458-45.188-36.511-40.25-62.922c1.691-9.039,10.43-15.014,19.42-13.307c9.039,1.686,14.998,10.384,13.307,19.42    c-1.849,9.905,6.324,21.241,18.221,25.276c13.047,4.427,30.427,0.049,37.962-9.552c6.495-8.283,5.17-20.554-3.02-27.939    c-6.881-6.202-17.977-10.149-29.723-14.327c-17.217-6.125-36.726-13.068-48.058-30.073c-7.857-11.8-9.454-26.634-4.377-40.706    c5.878-16.3,19.443-29.1,36.36-34.482v-20.879c0-9.194,7.455-16.648,16.648-16.648c9.195,0,16.648,7.454,16.648,16.648v18.635    c9.236,1.7,17.953,5.327,25.545,10.946c14.478,10.722,22.83,27.037,22.915,44.758c0.045,9.194-7.373,16.681-16.571,16.725    c-0.025,0-0.053,0-0.077,0c-9.157,0-16.603-7.401-16.648-16.57c-0.033-7.227-3.386-13.673-9.434-18.156    c-7.609-5.634-18.017-7.044-28.545-3.899c-7.08,2.118-13.173,7.698-15.522,14.218c-1.045,2.898-1.76,7.154,0.768,10.95    c5.199,7.804,17.977,12.352,31.505,17.165c13.628,4.845,29.072,10.34,40.859,20.968    C464.434,322.131,467.478,354.289,450.228,376.285z M600,300c0,106.197-86.4,192.597-192.597,192.597    c-3.87,0-7.651-0.355-11.464-0.581c-1.397,0.345-2.834,0.581-4.337,0.581H259.992c-10.009,0-18.124-8.115-18.124-18.124    s8.115-18.124,18.124-18.124h35.378c-19.357-13.911-36.056-31.24-49.131-51.214H130.746c-10.009,0-18.124-8.115-18.124-18.124    c0-10.009,8.115-18.124,18.124-18.124h97.015c-6.169-16.03-10.372-33.014-12.038-50.762h-61.508    c-10.009,0-18.124-8.115-18.124-18.124s8.115-18.124,18.124-18.124h61.508c1.877-19.991,6.757-39.12,14.293-56.877h-33.955    c-10.009,0-18.124-8.115-18.124-18.124c0-10.009,8.115-18.124,18.124-18.124h54.407c12.378-17.408,27.559-32.635,44.902-45.098    h-44.816c-10.009,0-18.124-8.115-18.124-18.124s8.115-18.124,18.124-18.124h141.777c1.465,0,2.87,0.221,4.235,0.549    c3.608-0.202,7.179-0.549,10.836-0.549C513.6,107.403,600,193.803,600,300z M251.054,300c0,86.21,70.139,156.349,156.349,156.349    c8.896,0,17.564-0.92,26.058-2.354c19.55-5.379,37.066-14.876,51.731-28.585c30.213-28.235,46.851-71.555,46.851-121.967    c0-49.669-18.58-95.263-50.97-125.096c-25.524-23.502-57.002-34.934-91.351-33.624C311.815,153.543,251.054,219.775,251.054,300z     M563.751,300c0-48.118-21.882-91.196-56.182-119.899c27.219,32.516,42.598,76.317,42.598,123.342    c0,36.712-8.334,70.024-23.692,97.633C549.671,373.792,563.751,338.532,563.751,300z M153.61,143.651h39.864    c10.009,0,18.124-8.115,18.124-18.124s-8.115-18.124-18.124-18.124H153.61c-10.009,0-18.124,8.115-18.124,18.124    S143.6,143.651,153.61,143.651z M125.658,224.998c10.009,0,18.124-8.115,18.124-18.124c0-10.009-8.115-18.124-18.124-18.124h-18.841    c-10.009,0-18.124,8.115-18.124,18.124c0,10.009,8.115,18.124,18.124,18.124H125.658z M71.692,281.876H18.124    C8.115,281.876,0,289.991,0,300s8.115,18.124,18.124,18.124h53.568c10.009,0,18.124-8.115,18.124-18.124    S81.701,281.876,71.692,281.876z M59.276,368.887h-9.828c-10.009,0-18.124,8.115-18.124,18.124c0,10.009,8.115,18.124,18.124,18.124    h9.828c10.009,0,18.124-8.115,18.124-18.124C77.4,377.002,69.285,368.887,59.276,368.887z M186.42,456.349h-65.617    c-10.009,0-18.124,8.115-18.124,18.124s8.115,18.124,18.124,18.124h65.617c10.009,0,18.124-8.115,18.124-18.124    S196.429,456.349,186.42,456.349z" fill="rgba(180, 215, 253, 1.0)"></path></g><text transform="translate(37.14166831970215 134.3000030517578)" fill="rgba(180, 215, 253, 1.0)" font-family="Berkshire Swash" font-size="64" data-element="company-name" dx="0 0 0 0 0 0 0 0">Auctions</text><text transform="translate(16.183334350585938 175.3000030517578)" fill="rgba(180, 215, 253, 1.0)" font-family="Ubuntu" font-size="28.8" data-element="slogan" dx="0 0 0 0 0 0 0 0 0 0 0 0 0 0 0 0 0 0 0 0 0 0 0">Take bids, win listings</text></g></g></svg>